<svg xmlns="http://www.w3.org/2000/svg" width="300" height="300"><defs><clipPath id="e"><path d="M2691.68 3012.94H1679.8l-50.82 411.22h1062.7v-411.22"/></clipPath><clipPath id="d"><path d="M3694.32 3012.94H2691.67v411.22h-1062.7H3735.9l-41.58-411.22"/></clipPath><clipPath id="c"><path d="M2691.68 1058.95l-857.9 253.67-55.45 642.24h423.58l27.74-332.67 457.42-115.52.74.2.8-.2 3.08.86v-448.6"/></clipPath><clipPath id="b"><path d="M2691.68 2178.25l-941.07 3-.04.63-32.3 401.36h973.42v-405"/></clipPath><clipPath><path d="M1749.1 2181.26l-32.33 401.98h1.5l32.3-401.36-1.46-.62"/></clipPath><clipPath id="a"><path d="M2693.23 1058.5l-.34.1-1.22.35v448.6l1.2.33 471.63 132.8 32.36 535.96-503.97 1.6h-1.22v405h-973.4H3658.9L3548 1308l-854.77-249.5m-6.17 448.18l-457.42 115.5-27.73 332.68h-423.57 425.08l27.73-332.67 456.67-115.3-.74-.22"/></clipPath><clipPath><path d="M2691.68 2584.27v405l56.83 23.67h945.82L2692.9 2584.78l-1.22-.5"/></clipPath><clipPath><path d="M2689.28 2583.24h-972.5l974.9 406.03v-405l-2.4-1.03"/></clipPath><clipPath><path d="M0 141.73h141.73V0H0v141.73z"/></clipPath></defs><g opacity=".84"><path d="M224.8 254.23L150 274.1l-74.78-19.87L57.96 69.9h184.1l-17.27 184.33"/><path d="M107.56 42.8V31.85h16.24v-12H95.4v33.93h28.4V42.8h-16.24"/><path d="M153 31.84h11.36v-12h-28.42s0 6.02 0 12c3.8 3.75 5.8 5.54 11.28 10.97-3.2 0-11.28.02-11.28.02v10.95h28.42V42.8L153 31.85"/><path d="M193.28 31.84h11.35v-12H176.2s0 6.02 0 12c3.8 3.75 5.8 5.54 11.3 10.97-3.22 0-11.3.02-11.3.02v10.95h28.43V42.8l-11.35-10.96"/><path fill="#fff" d="M149.94 130.92L96.4 152.9l1.8 21.76 51.74-21.82 55.05-23.2 2.27-22.26-57.33 23.54"/><g fill="#fff"><g clip-path="url(#a)" transform="matrix(.055 0 0 -.054 2.157 292.738)"><path d="M1718.27 1058.5v1524.74V1058.5z"/><path d="M1718.27 1058.5h7.58v1524.74h-7.58V1058.5z"/><path d="M1725.85 1058.5h7.58v1524.74h-7.58V1058.5z"/><path d="M1733.43 1058.5h7.58v1524.74h-7.57V1058.5z"/><path d="M1741 1058.5h7.6v1524.74h-7.6V1058.5z"/><path d="M1748.6 1058.5h7.57v1524.74h-7.58V1058.5z"/><path d="M1756.17 1058.5h7.58v1524.74h-7.58V1058.5z"/><path d="M1763.75 1058.5h7.58v1524.74h-7.58V1058.5z"/><path d="M1771.34 1058.5h7.58v1524.74h-7.58V1058.5z"/><path d="M1778.9 1058.5h7.6v1524.74h-7.6V1058.5z"/><path d="M1786.5 1058.5h7.58v1524.74h-7.58V1058.5z"/><path d="M1794.08 1058.5h7.58v1524.74h-7.58V1058.5z"/><path d="M1801.66 1058.5h7.58v1524.74h-7.58V1058.5z"/><path d="M1809.24 1058.5h7.58v1524.74h-7.58V1058.5z"/><path d="M1816.82 1058.5h7.58v1524.74h-7.58V1058.5z"/><path d="M1824.4 1058.5h7.58v1524.74h-7.58V1058.5z"/><path d="M1831.98 1058.5h7.58v1524.74h-7.58V1058.5z"/><path d="M1839.56 1058.5h7.58v1524.74h-7.58V1058.5z"/><path d="M1847.14 1058.5h7.58v1524.74h-7.58V1058.5z"/><path d="M1854.72 1058.5h7.58v1524.74h-7.58V1058.5z"/><path d="M1862.3 1058.5h7.58v1524.74h-7.58V1058.5z"/><path d="M1869.88 1058.5h7.58v1524.74h-7.58V1058.5z"/><path d="M1877.46 1058.5h7.58v1524.74h-7.58V1058.5z"/><path d="M1885.04 1058.5h7.58v1524.74h-7.58V1058.5z"/><path d="M1892.63 1058.5h7.58v1524.74h-7.57V1058.5z"/><path d="M1900.2 1058.5h7.6v1524.74h-7.6V1058.5z"/><path d="M1907.8 1058.5h7.57v1524.74h-7.58V1058.5z"/><path d="M1915.37 1058.5h7.58v1524.74h-7.58V1058.5z"/><path d="M1922.95 1058.5h7.58v1524.74h-7.58V1058.5z"/><path d="M1930.53 1058.5h7.58v1524.74h-7.57V1058.5z"/><path d="M1938.1 1058.5h7.6v1524.74h-7.6V1058.5z"/><path d="M1945.7 1058.5h7.57v1524.74h-7.58V1058.5z"/><path d="M1953.27 1058.5h7.58v1524.74h-7.58V1058.5z"/><path d="M1960.85 1058.5h7.58v1524.74h-7.58V1058.5z"/><path d="M1968.43 1058.5h7.58v1524.74h-7.57V1058.5z"/><path d="M1976 1058.5h7.6v1524.74h-7.6V1058.5z"/><path d="M1983.6 1058.5h7.57v1524.74h-7.58V1058.5z"/><path d="M1991.17 1058.5h7.58v1524.74h-7.58V1058.5z"/><path d="M1998.75 1058.5h7.58v1524.74h-7.58V1058.5z"/><path d="M2006.33 1058.5h7.58v1524.74h-7.57V1058.5z"/><path d="M2013.9 1058.5h7.6v1524.74h-7.6V1058.5z"/><path d="M2021.5 1058.5h7.58v1524.74h-7.58V1058.5z"/><path d="M2029.07 1058.5h7.58v1524.74h-7.58V1058.5z"/><path d="M2036.66 1058.5h7.58v1524.74h-7.58V1058.5z"/><path d="M2044.24 1058.5h7.58v1524.74h-7.58V1058.5z"/><path d="M2051.82 1058.5h7.58v1524.74h-7.58V1058.5z"/><path d="M2059.4 1058.5h7.58v1524.74h-7.58V1058.5z"/><path d="M2066.98 1058.5h7.58v1524.74h-7.58V1058.5z"/><path d="M2074.56 1058.5h7.58v1524.74h-7.58V1058.5z"/><path d="M2082.14 1058.5h7.58v1524.74h-7.58V1058.5z"/><path d="M2089.72 1058.5h7.58v1524.74h-7.58V1058.5z"/><path d="M2097.3 1058.5h7.58v1524.74h-7.58V1058.5z"/><path d="M2104.88 1058.5h7.58v1524.74h-7.58V1058.5z"/><path d="M2112.46 1058.5h7.58v1524.74h-7.58V1058.5z"/><path d="M2120.04 1058.5h7.58v1524.74h-7.58V1058.5z"/><path d="M2127.63 1058.5h7.58v1524.74h-7.57V1058.5z"/><path d="M2135.2 1058.5h7.58v1524.74h-7.58V1058.5z"/><path d="M2142.8 1058.5h7.57v1524.74h-7.58V1058.5z"/><path d="M2150.37 1058.5h7.58v1524.74h-7.58V1058.5z"/><path d="M2157.95 1058.5h7.58v1524.74h-7.58V1058.5z"/><path d="M2165.53 1058.5h7.58v1524.74h-7.57V1058.5z"/><path d="M2173.1 1058.5h7.6v1524.74h-7.6V1058.5z"/><path d="M2180.7 1058.5h7.57v1524.74h-7.58V1058.5z"/><path d="M2188.27 1058.5h7.58v1524.74h-7.58V1058.5z"/><path d="M2195.85 1058.5h7.58v1524.74h-7.58V1058.5z"/><path d="M2203.43 1058.5h7.58v1524.74h-7.57V1058.5z"/><path d="M2211 1058.5h7.6v1524.74h-7.6V1058.5z"/><path d="M2218.6 1058.5h7.57v1524.74h-7.58V1058.5z"/><path d="M2226.17 1058.5h7.58v1524.74h-7.58V1058.5z"/><path d="M2233.75 1058.5h7.58v1524.74h-7.58V1058.5z"/><path d="M2241.33 1058.5h7.58v1524.74h-7.57V1058.5z"/><path d="M2248.9 1058.5h7.6v1524.74h-7.6V1058.5z"/><path d="M2256.5 1058.5h7.58v1524.74h-7.58V1058.5z"/><path d="M2264.07 1058.5h7.58v1524.74h-7.58V1058.5z"/><path d="M2271.66 1058.5h7.58v1524.74h-7.58V1058.5z"/><path d="M2279.24 1058.5h7.58v1524.74h-7.58V1058.5z"/><path d="M2286.82 1058.5h7.58v1524.74h-7.58V1058.5z"/><path d="M2294.4 1058.5h7.58v1524.74h-7.58V1058.5z"/><path d="M2301.98 1058.5h7.58v1524.74h-7.58V1058.5z"/><path d="M2309.56 1058.5h7.58v1524.74h-7.58V1058.5z"/><path d="M2317.14 1058.5h7.58v1524.74h-7.58V1058.5z"/><path d="M2324.72 1058.5h7.58v1524.74h-7.58V1058.5z"/><path d="M2332.3 1058.5h7.58v1524.74h-7.58V1058.5z"/><path d="M2339.88 1058.5h7.58v1524.74h-7.58V1058.5z"/><path d="M2347.46 1058.5h7.58v1524.74h-7.58V1058.5z"/><path d="M2355.04 1058.5h7.58v1524.74h-7.58V1058.5z"/><path d="M2362.63 1058.5h7.58v1524.74h-7.57V1058.5z"/><path d="M2370.2 1058.5h7.58v1524.74h-7.58V1058.5z"/><path d="M2377.8 1058.5h7.57v1524.74h-7.58V1058.5z"/><path d="M2385.36 1058.5h7.58v1524.74h-7.58V1058.5z"/><path d="M2392.95 1058.5h7.58v1524.74h-7.58V1058.5z"/><path d="M2400.53 1058.5h7.58v1524.74h-7.57V1058.5z"/><path d="M2408.1 1058.5h7.6v1524.74h-7.6V1058.5z"/><path d="M2415.7 1058.5h7.57v1524.74h-7.58V1058.5z"/><path d="M2423.27 1058.5h7.58v1524.74h-7.58V1058.5z"/><path d="M2430.85 1058.5h7.58v1524.74h-7.58V1058.5z"/><path d="M2438.43 1058.5h7.58v1524.74h-7.57V1058.5z"/><path d="M2446 1058.5h7.6v1524.74h-7.6V1058.5z"/><path d="M2453.6 1058.5h7.57v1524.74h-7.58V1058.5z"/><path d="M2461.17 1058.5h7.58v1524.74h-7.58V1058.5z"/><path d="M2468.75 1058.5h7.58v1524.74h-7.58V1058.5z"/><path d="M2476.33 1058.5h7.58v1524.74h-7.57V1058.5z"/><path d="M2483.9 1058.5h7.6v1524.74h-7.6V1058.5z"/><path d="M2491.5 1058.5h7.57v1524.74h-7.58V1058.5z"/><path d="M2499.07 1058.5h7.58v1524.74h-7.58V1058.5z"/><path d="M2506.66 1058.5h7.58v1524.74h-7.58V1058.5z"/><path d="M2514.23 1058.5h7.58v1524.74h-7.57V1058.5z"/><path d="M2521.82 1058.5h7.58v1524.74h-7.58V1058.5z"/><path d="M2529.4 1058.5h7.58v1524.74h-7.58V1058.5z"/><path d="M2536.98 1058.5h7.58v1524.74h-7.58V1058.5z"/><path d="M2544.56 1058.5h7.58v1524.74h-7.58V1058.5z"/><path d="M2552.14 1058.5h7.58v1524.74h-7.58V1058.5z"/><path d="M2559.72 1058.5h7.58v1524.74h-7.58V1058.5z"/><path d="M2567.3 1058.5h7.58v1524.74h-7.58V1058.5z"/><path d="M2574.88 1058.5h7.58v1524.74h-7.58V1058.5z"/><path d="M2582.46 1058.5h7.58v1524.74h-7.58V1058.5z"/><path d="M2590.04 1058.5h7.58v1524.74h-7.58V1058.5z"/><path d="M2597.62 1058.5h7.58v1524.74h-7.58V1058.5z"/><path d="M2605.2 1058.5h7.58v1524.74h-7.58V1058.5z"/><path d="M2612.8 1058.5h7.57v1524.74h-7.58V1058.5z"/><path d="M2620.36 1058.5h7.58v1524.74h-7.58V1058.5z"/><path d="M2627.95 1058.5h7.58v1524.74h-7.58V1058.5z"/><path d="M2635.53 1058.5h7.58v1524.74h-7.57V1058.5z"/><path d="M2643.1 1058.5h7.6v1524.74h-7.6V1058.5z"/><path d="M2650.7 1058.5h7.57v1524.74h-7.58V1058.5z"/><path d="M2658.27 1058.5h7.58v1524.74h-7.58V1058.5z"/><path d="M2665.85 1058.5h7.58v1524.74h-7.58V1058.5z"/><path d="M2673.43 1058.5h7.58v1524.74h-7.57V1058.5z"/><path d="M2681 1058.5h7.6v1524.74h-7.6V1058.5z"/><path d="M2688.6 1058.5h7.57v1524.74h-7.58V1058.5z"/><path d="M2696.17 1058.5h7.58v1524.74h-7.58V1058.5z"/><path d="M2703.75 1058.5h7.58v1524.74h-7.58V1058.5z"/><path d="M2711.33 1058.5h7.58v1524.74h-7.57V1058.5z"/><path d="M2718.9 1058.5h7.6v1524.74h-7.6V1058.5z"/><path d="M2726.5 1058.5h7.57v1524.74h-7.58V1058.5z"/><path d="M2734.07 1058.5h7.58v1524.74h-7.58V1058.5z"/><path d="M2741.66 1058.5h7.58v1524.74h-7.58V1058.5z"/><path d="M2749.23 1058.5h7.58v1524.74h-7.57V1058.5z"/><path d="M2756.82 1058.5h7.58v1524.74h-7.58V1058.5z"/><path d="M2764.4 1058.5h7.57v1524.74h-7.58V1058.5z"/><path d="M2771.98 1058.5h7.58v1524.74h-7.58V1058.5z"/><path d="M2779.56 1058.5h7.58v1524.74h-7.58V1058.5z"/><path d="M2787.14 1058.5h7.58v1524.74h-7.58V1058.5z"/><path d="M2794.72 1058.5h7.58v1524.74h-7.58V1058.5z"/><path d="M2802.3 1058.5h7.58v1524.74h-7.58V1058.5z"/><path d="M2809.88 1058.5h7.58v1524.74h-7.58V1058.5z"/><path d="M2817.46 1058.5h7.58v1524.74h-7.58V1058.5z"/><path d="M2825.04 1058.5h7.58v1524.74h-7.58V1058.5z"/><path d="M2832.62 1058.5h7.58v1524.74h-7.58V1058.5z"/><path d="M2840.2 1058.5h7.58v1524.74h-7.58V1058.5z"/><path d="M2847.8 1058.5h7.57v1524.74h-7.58V1058.5z"/><path d="M2855.36 1058.5h7.58v1524.74h-7.58V1058.5z"/><path d="M2862.95 1058.5h7.58v1524.74h-7.58V1058.5z"/><path d="M2870.52 1058.5h7.58v1524.74h-7.58V1058.5z"/><path d="M2878.1 1058.5h7.6v1524.74h-7.6V1058.5z"/><path d="M2885.7 1058.5h7.57v1524.74h-7.58V1058.5z"/><path d="M2893.27 1058.5h7.58v1524.74h-7.58V1058.5z"/><path d="M2900.85 1058.5h7.58v1524.74h-7.58V1058.5z"/><path d="M2908.43 1058.5h7.58v1524.74h-7.57V1058.5z"/><path d="M2916 1058.5h7.6v1524.74h-7.6V1058.5z"/><path d="M2923.6 1058.5h7.57v1524.74h-7.58V1058.5z"/><path d="M2931.17 1058.5h7.58v1524.74h-7.58V1058.5z"/><path d="M2938.75 1058.5h7.58v1524.74h-7.58V1058.5z"/><path d="M2946.33 1058.5h7.58v1524.74h-7.57V1058.5z"/><path d="M2953.9 1058.5h7.6v1524.74h-7.6V1058.5z"/><path d="M2961.5 1058.5h7.57v1524.74h-7.58V1058.5z"/><path d="M2969.07 1058.5h7.58v1524.74h-7.58V1058.5z"/><path d="M2976.65 1058.5h7.58v1524.74h-7.58V1058.5z"/><path d="M2984.23 1058.5h7.58v1524.74h-7.57V1058.5z"/><path d="M2991.82 1058.5h7.58v1524.74h-7.58V1058.5z"/><path d="M2999.4 1058.5h7.57v1524.74h-7.58V1058.5z"/><path d="M3006.98 1058.5h7.58v1524.74h-7.58V1058.5z"/><path d="M3014.56 1058.5h7.58v1524.74h-7.58V1058.5z"/><path d="M3022.14 1058.5h7.58v1524.74h-7.58V1058.5z"/><path d="M3029.72 1058.5h7.58v1524.74h-7.58V1058.5z"/><path d="M3037.3 1058.5h7.58v1524.74h-7.58V1058.5z"/><path d="M3044.88 1058.5h7.58v1524.74h-7.58V1058.5z"/><path d="M3052.46 1058.5h7.58v1524.74h-7.58V1058.5z"/><path d="M3060.04 1058.5h7.58v1524.74h-7.58V1058.5z"/><path d="M3067.62 1058.5h7.58v1524.74h-7.58V1058.5z"/><path d="M3075.2 1058.5h7.58v1524.74h-7.58V1058.5z"/><path d="M3082.78 1058.5h7.58v1524.74h-7.58V1058.5z"/><path d="M3090.36 1058.5h7.58v1524.74h-7.58V1058.5z"/><path d="M3097.95 1058.5h7.58v1524.74h-7.58V1058.5z"/><path d="M3105.52 1058.5h7.58v1524.74h-7.58V1058.5z"/><path d="M3113.1 1058.5h7.6v1524.74h-7.6V1058.5z"/><path d="M3120.7 1058.5h7.57v1524.74h-7.58V1058.5z"/><path d="M3128.27 1058.5h7.58v1524.74h-7.58V1058.5z"/><path d="M3135.85 1058.5h7.58v1524.74h-7.58V1058.5z"/><path d="M3143.43 1058.5h7.58v1524.74h-7.57V1058.5z"/><path d="M3151 1058.5h7.6v1524.74h-7.6V1058.5z"/><path d="M3158.6 1058.5h7.57v1524.74h-7.58V1058.5z"/><path d="M3166.17 1058.5h7.58v1524.74h-7.58V1058.5z"/><path d="M3173.75 1058.5h7.58v1524.74h-7.58V1058.5z"/><path d="M3181.33 1058.5h7.58v1524.74h-7.57V1058.5z"/><path d="M3188.9 1058.5h7.6v1524.74h-7.6V1058.5z"/><path d="M3196.5 1058.5h7.57v1524.74h-7.58V1058.5z"/><path d="M3204.07 1058.5h7.58v1524.74h-7.58V1058.5z"/><path d="M3211.65 1058.5h7.58v1524.74h-7.58V1058.5z"/><path d="M3219.23 1058.5h7.58v1524.74h-7.57V1058.5z"/><path d="M3226.82 1058.5h7.58v1524.74h-7.58V1058.5z"/><path d="M3234.4 1058.5h7.57v1524.74h-7.58V1058.5z"/><path d="M3241.98 1058.5h7.58v1524.74h-7.58V1058.5z"/><path d="M3249.55 1058.5h7.58v1524.74h-7.58V1058.5z"/><path d="M3257.14 1058.5h7.58v1524.74h-7.58V1058.5z"/><path d="M3264.72 1058.5h7.58v1524.74h-7.58V1058.5z"/><path d="M3272.3 1058.5h7.58v1524.74h-7.58V1058.5z"/><path d="M3279.88 1058.5h7.58v1524.74h-7.58V1058.5z"/><path d="M3287.46 1058.5h7.58v1524.74h-7.58V1058.5z"/><path d="M3295.04 1058.5h7.58v1524.74h-7.58V1058.5z"/><path d="M3302.62 1058.5h7.58v1524.74h-7.58V1058.5z"/><path d="M3310.2 1058.5h7.58v1524.74h-7.58V1058.5z"/><path d="M3317.78 1058.5h7.58v1524.74h-7.58V1058.5z"/><path d="M3325.36 1058.5h7.58v1524.74h-7.58V1058.5z"/><path d="M3332.94 1058.5h7.58v1524.74h-7.58V1058.5z"/><path d="M3340.52 1058.5h7.58v1524.74h-7.58V1058.5z"/><path d="M3348.1 1058.5h7.6v1524.74h-7.6V1058.5z"/><path d="M3355.68 1058.5h7.58v1524.74h-7.58V1058.5z"/><path d="M3363.27 1058.5h7.58v1524.74h-7.58V1058.5z"/><path d="M3370.85 1058.5h7.58v1524.74h-7.58V1058.5z"/><path d="M3378.43 1058.5h7.58v1524.74h-7.57V1058.5z"/><path d="M3386 1058.5h7.6v1524.74h-7.6V1058.5z"/><path d="M3393.6 1058.5h7.57v1524.74h-7.58V1058.5z"/><path d="M3401.17 1058.5h7.58v1524.74h-7.58V1058.5z"/><path d="M3408.75 1058.5h7.58v1524.74h-7.58V1058.5z"/><path d="M3416.33 1058.5h7.58v1524.74h-7.57V1058.5z"/><path d="M3423.9 1058.5h7.6v1524.74h-7.6V1058.5z"/><path d="M3431.5 1058.5h7.57v1524.74h-7.58V1058.5z"/><path d="M3439.07 1058.5h7.58v1524.74h-7.58V1058.5z"/><path d="M3446.65 1058.5h7.58v1524.74h-7.58V1058.5z"/><path d="M3454.23 1058.5h7.58v1524.74h-7.57V1058.5z"/><path d="M3461.8 1058.5h7.6v1524.74h-7.6V1058.5z"/><path d="M3469.4 1058.5h7.57v1524.74h-7.58V1058.5z"/><path d="M3476.98 1058.5h7.58v1524.74h-7.58V1058.5z"/><path d="M3484.55 1058.5h7.58v1524.74h-7.58V1058.5z"/><path d="M3492.14 1058.5h7.58v1524.74h-7.58V1058.5z"/><path d="M3499.72 1058.5h7.58v1524.74h-7.58V1058.5z"/><path d="M3507.3 1058.5h7.58v1524.74h-7.58V1058.5z"/><path d="M3514.88 1058.5h7.58v1524.74h-7.58V1058.5z"/><path d="M3522.46 1058.5h7.58v1524.74h-7.58V1058.5z"/><path d="M3530.04 1058.5h7.58v1524.74h-7.58V1058.5z"/><path d="M3537.62 1058.5h7.58v1524.74h-7.58V1058.5z"/><path d="M3545.2 1058.5h7.58v1524.74h-7.58V1058.5z"/><path d="M3552.78 1058.5h7.58v1524.74h-7.58V1058.5z"/><path d="M3560.36 1058.5h7.58v1524.74h-7.58V1058.5z"/><path d="M3567.94 1058.5h7.58v1524.74h-7.58V1058.5z"/><path d="M3575.52 1058.5h7.58v1524.74h-7.58V1058.5z"/><path d="M3583.1 1058.5h7.6v1524.74h-7.6V1058.5z"/><path d="M3590.68 1058.5h7.58v1524.74h-7.58V1058.5z"/><path d="M3598.27 1058.5h7.58v1524.74h-7.58V1058.5z"/><path d="M3605.85 1058.5h7.58v1524.74h-7.58V1058.5z"/><path d="M3613.43 1058.5h7.58v1524.74h-7.57V1058.5z"/><path d="M3621 1058.5h7.6v1524.74h-7.6V1058.5z"/><path d="M3628.6 1058.5h7.57v1524.74h-7.58V1058.5z"/><path d="M3636.17 1058.5h7.58v1524.74h-7.58V1058.5z"/><path d="M3643.75 1058.5h7.58v1524.74h-7.58V1058.5z"/><path d="M3651.33 1058.5h7.58v1524.74h-7.57V1058.5z"/><path d="M3658.9 1058.5v1524.74V1058.5z"/></g></g><path fill="#fff" d="M149.94 174.82l-51.75-.16-1.8-21.76 1.8 21.76.07-.03v.03l51.67.16"/><g fill="#fff"><g clip-path="url(#b)" transform="matrix(.055 0 0 -.054 2.157 292.738)"><path d="M1718.27 2178.25v405-405z"/><path d="M1718.27 2178.25h7.58v405h-7.58v-405z"/><path d="M1725.85 2178.25h7.58v405h-7.58v-405z"/><path d="M1733.43 2178.25h7.58v405h-7.57v-405z"/><path d="M1741 2178.25h7.6v405h-7.6v-405z"/><path d="M1748.6 2178.25h7.57v405h-7.58v-405z"/><path d="M1756.17 2178.25h7.58v405h-7.58v-405z"/><path d="M1763.75 2178.25h7.58v405h-7.58v-405z"/><path d="M1771.34 2178.25h7.58v405h-7.58v-405z"/><path d="M1778.9 2178.25h7.6v405h-7.6v-405z"/><path d="M1786.5 2178.25h7.58v405h-7.58v-405z"/><path d="M1794.08 2178.25h7.58v405h-7.58v-405z"/><path d="M1801.66 2178.25h7.58v405h-7.58v-405z"/><path d="M1809.24 2178.25h7.58v405h-7.58v-405z"/><path d="M1816.82 2178.25h7.58v405h-7.58v-405z"/><path d="M1824.4 2178.25h7.58v405h-7.58v-405z"/><path d="M1831.98 2178.25h7.58v405h-7.58v-405z"/><path d="M1839.56 2178.25h7.58v405h-7.58v-405z"/><path d="M1847.14 2178.25h7.58v405h-7.58v-405z"/><path d="M1854.72 2178.25h7.58v405h-7.58v-405z"/><path d="M1862.3 2178.25h7.58v405h-7.58v-405z"/><path d="M1869.88 2178.25h7.58v405h-7.58v-405z"/><path d="M1877.46 2178.25h7.58v405h-7.58v-405z"/><path d="M1885.04 2178.25h7.58v405h-7.58v-405z"/><path d="M1892.63 2178.25h7.58v405h-7.57v-405z"/><path d="M1900.2 2178.25h7.6v405h-7.6v-405z"/><path d="M1907.8 2178.25h7.57v405h-7.58v-405z"/><path d="M1915.37 2178.25h7.58v405h-7.58v-405z"/><path d="M1922.95 2178.25h7.58v405h-7.58v-405z"/><path d="M1930.53 2178.25h7.58v405h-7.57v-405z"/><path d="M1938.1 2178.25h7.6v405h-7.6v-405z"/><path d="M1945.7 2178.25h7.57v405h-7.58v-405z"/><path d="M1953.27 2178.25h7.58v405h-7.58v-405z"/><path d="M1960.85 2178.25h7.58v405h-7.58v-405z"/><path d="M1968.43 2178.25h7.58v405h-7.57v-405z"/><path d="M1976 2178.25h7.6v405h-7.6v-405z"/><path d="M1983.6 2178.25h7.57v405h-7.58v-405z"/><path d="M1991.17 2178.25h7.58v405h-7.58v-405z"/><path d="M1998.75 2178.25h7.58v405h-7.58v-405z"/><path d="M2006.33 2178.25h7.58v405h-7.57v-405z"/><path d="M2013.9 2178.25h7.6v405h-7.6v-405z"/><path d="M2021.5 2178.25h7.58v405h-7.58v-405z"/><path d="M2029.07 2178.25h7.58v405h-7.58v-405z"/><path d="M2036.66 2178.25h7.58v405h-7.58v-405z"/><path d="M2044.24 2178.25h7.58v405h-7.58v-405z"/><path d="M2051.82 2178.25h7.58v405h-7.58v-405z"/><path d="M2059.4 2178.25h7.58v405h-7.58v-405z"/><path d="M2066.98 2178.25h7.58v405h-7.58v-405z"/><path d="M2074.56 2178.25h7.58v405h-7.58v-405z"/><path d="M2082.14 2178.25h7.58v405h-7.58v-405z"/><path d="M2089.72 2178.25h7.58v405h-7.58v-405z"/><path d="M2097.3 2178.25h7.58v405h-7.58v-405z"/><path d="M2104.88 2178.25h7.58v405h-7.58v-405z"/><path d="M2112.46 2178.25h7.58v405h-7.58v-405z"/><path d="M2120.04 2178.25h7.58v405h-7.58v-405z"/><path d="M2127.63 2178.25h7.58v405h-7.57v-405z"/><path d="M2135.2 2178.25h7.58v405h-7.58v-405z"/><path d="M2142.8 2178.25h7.57v405h-7.58v-405z"/><path d="M2150.37 2178.25h7.58v405h-7.58v-405z"/><path d="M2157.95 2178.25h7.58v405h-7.58v-405z"/><path d="M2165.53 2178.25h7.58v405h-7.57v-405z"/><path d="M2173.1 2178.25h7.6v405h-7.6v-405z"/><path d="M2180.7 2178.25h7.57v405h-7.58v-405z"/><path d="M2188.27 2178.25h7.58v405h-7.58v-405z"/><path d="M2195.85 2178.25h7.58v405h-7.58v-405z"/><path d="M2203.43 2178.25h7.58v405h-7.57v-405z"/><path d="M2211 2178.25h7.6v405h-7.6v-405z"/><path d="M2218.6 2178.25h7.57v405h-7.58v-405z"/><path d="M2226.17 2178.25h7.58v405h-7.58v-405z"/><path d="M2233.75 2178.25h7.58v405h-7.58v-405z"/><path d="M2241.33 2178.25h7.58v405h-7.57v-405z"/><path d="M2248.9 2178.25h7.6v405h-7.6v-405z"/><path d="M2256.5 2178.25h7.58v405h-7.58v-405z"/><path d="M2264.07 2178.25h7.58v405h-7.58v-405z"/><path d="M2271.66 2178.25h7.58v405h-7.58v-405z"/><path d="M2279.24 2178.25h7.58v405h-7.58v-405z"/><path d="M2286.82 2178.25h7.58v405h-7.58v-405z"/><path d="M2294.4 2178.25h7.58v405h-7.58v-405z"/><path d="M2301.98 2178.25h7.58v405h-7.58v-405z"/><path d="M2309.56 2178.25h7.58v405h-7.58v-405z"/><path d="M2317.14 2178.25h7.58v405h-7.58v-405z"/><path d="M2324.72 2178.25h7.58v405h-7.58v-405z"/><path d="M2332.3 2178.25h7.58v405h-7.58v-405z"/><path d="M2339.88 2178.25h7.58v405h-7.58v-405z"/><path d="M2347.46 2178.25h7.58v405h-7.58v-405z"/><path d="M2355.04 2178.25h7.58v405h-7.58v-405z"/><path d="M2362.63 2178.25h7.58v405h-7.57v-405z"/><path d="M2370.2 2178.25h7.58v405h-7.58v-405z"/><path d="M2377.8 2178.25h7.57v405h-7.58v-405z"/><path d="M2385.36 2178.25h7.58v405h-7.58v-405z"/><path d="M2392.95 2178.25h7.58v405h-7.58v-405z"/><path d="M2400.53 2178.25h7.58v405h-7.57v-405z"/><path d="M2408.1 2178.25h7.6v405h-7.6v-405z"/><path d="M2415.7 2178.25h7.57v405h-7.58v-405z"/><path d="M2423.27 2178.25h7.58v405h-7.58v-405z"/><path d="M2430.85 2178.25h7.58v405h-7.58v-405z"/><path d="M2438.43 2178.25h7.58v405h-7.57v-405z"/><path d="M2446 2178.25h7.6v405h-7.6v-405z"/><path d="M2453.6 2178.25h7.57v405h-7.58v-405z"/><path d="M2461.17 2178.25h7.58v405h-7.58v-405z"/><path d="M2468.75 2178.25h7.58v405h-7.58v-405z"/><path d="M2476.33 2178.25h7.58v405h-7.57v-405z"/><path d="M2483.9 2178.25h7.6v405h-7.6v-405z"/><path d="M2491.5 2178.25h7.57v405h-7.58v-405z"/><path d="M2499.07 2178.25h7.58v405h-7.58v-405z"/><path d="M2506.66 2178.25h7.58v405h-7.58v-405z"/><path d="M2514.23 2178.25h7.58v405h-7.57v-405z"/><path d="M2521.82 2178.25h7.58v405h-7.58v-405z"/><path d="M2529.4 2178.25h7.58v405h-7.58v-405z"/><path d="M2536.98 2178.25h7.58v405h-7.58v-405z"/><path d="M2544.56 2178.25h7.58v405h-7.58v-405z"/><path d="M2552.14 2178.25h7.58v405h-7.58v-405z"/><path d="M2559.72 2178.25h7.58v405h-7.58v-405z"/><path d="M2567.3 2178.25h7.58v405h-7.58v-405z"/><path d="M2574.88 2178.25h7.58v405h-7.58v-405z"/><path d="M2582.46 2178.25h7.58v405h-7.58v-405z"/><path d="M2590.04 2178.25h7.58v405h-7.58v-405z"/><path d="M2597.62 2178.25h7.58v405h-7.58v-405z"/><path d="M2605.2 2178.25h7.58v405h-7.58v-405z"/><path d="M2612.8 2178.25h7.57v405h-7.58v-405z"/><path d="M2620.36 2178.25h7.58v405h-7.58v-405z"/><path d="M2627.95 2178.25h7.58v405h-7.58v-405z"/><path d="M2635.53 2178.25h7.58v405h-7.57v-405z"/><path d="M2643.1 2178.25h7.6v405h-7.6v-405z"/><path d="M2650.7 2178.25h7.57v405h-7.58v-405z"/><path d="M2658.27 2178.25h7.58v405h-7.58v-405z"/><path d="M2665.85 2178.25h7.58v405h-7.58v-405z"/><path d="M2673.43 2178.25h7.58v405h-7.57v-405z"/><path d="M2681 2178.25h7.6v405h-7.6v-405z"/><path d="M2688.6 2178.25h7.57v405h-7.58v-405z"/></g></g><path fill="#fff" d="M149.94 235.44l-47.18-13.76-3.05-34.76h.1l3.04 34.76 47.1 13.73v.04m-.17-24.26h-.04l.2-.07v.03l-.16.05"/><g fill="#fff"><g clip-path="url(#c)" transform="matrix(.055 0 0 -.054 2.157 292.738)"><path d="M1771.34 1058.95h7.58v895.9h-7.58v-895.9z"/><path d="M1778.9 1058.95h7.6v895.9h-7.6v-895.9z"/><path d="M1786.5 1058.95h7.58v895.9h-7.58v-895.9z"/><path d="M1794.08 1058.95h7.58v895.9h-7.58v-895.9z"/><path d="M1801.66 1058.95h7.58v895.9h-7.58v-895.9z"/><path d="M1809.24 1058.95h7.58v895.9h-7.58v-895.9z"/><path d="M1816.82 1058.95h7.58v895.9h-7.58v-895.9z"/><path d="M1824.4 1058.95h7.58v895.9h-7.58v-895.9z"/><path d="M1831.98 1058.95h7.58v895.9h-7.58v-895.9z"/><path d="M1839.56 1058.95h7.58v895.9h-7.58v-895.9z"/><path d="M1847.14 1058.95h7.58v895.9h-7.58v-895.9z"/><path d="M1854.72 1058.95h7.58v895.9h-7.58v-895.9z"/><path d="M1862.3 1058.95h7.58v895.9h-7.58v-895.9z"/><path d="M1869.88 1058.95h7.58v895.9h-7.58v-895.9z"/><path d="M1877.46 1058.95h7.58v895.9h-7.58v-895.9z"/><path d="M1885.04 1058.95h7.58v895.9h-7.58v-895.9z"/><path d="M1892.63 1058.95h7.58v895.9h-7.57v-895.9z"/><path d="M1900.2 1058.95h7.6v895.9h-7.6v-895.9z"/><path d="M1907.8 1058.95h7.57v895.9h-7.58v-895.9z"/><path d="M1915.37 1058.95h7.58v895.9h-7.58v-895.9z"/><path d="M1922.95 1058.95h7.58v895.9h-7.58v-895.9z"/><path d="M1930.53 1058.95h7.58v895.9h-7.57v-895.9z"/><path d="M1938.1 1058.95h7.6v895.9h-7.6v-895.9z"/><path d="M1945.7 1058.95h7.57v895.9h-7.58v-895.9z"/><path d="M1953.27 1058.95h7.58v895.9h-7.58v-895.9z"/><path d="M1960.85 1058.95h7.58v895.9h-7.58v-895.9z"/><path d="M1968.43 1058.95h7.58v895.9h-7.57v-895.9z"/><path d="M1976 1058.95h7.6v895.9h-7.6v-895.9z"/><path d="M1983.6 1058.95h7.57v895.9h-7.58v-895.9z"/><path d="M1991.17 1058.95h7.58v895.9h-7.58v-895.9z"/><path d="M1998.75 1058.95h7.58v895.9h-7.58v-895.9z"/><path d="M2006.33 1058.95h7.58v895.9h-7.57v-895.9z"/><path d="M2013.9 1058.95h7.6v895.9h-7.6v-895.9z"/><path d="M2021.5 1058.95h7.58v895.9h-7.58v-895.9z"/><path d="M2029.07 1058.95h7.58v895.9h-7.58v-895.9z"/><path d="M2036.66 1058.95h7.58v895.9h-7.58v-895.9z"/><path d="M2044.24 1058.95h7.58v895.9h-7.58v-895.9z"/><path d="M2051.82 1058.95h7.58v895.9h-7.58v-895.9z"/><path d="M2059.4 1058.95h7.58v895.9h-7.58v-895.9z"/><path d="M2066.98 1058.95h7.58v895.9h-7.58v-895.9z"/><path d="M2074.56 1058.95h7.58v895.9h-7.58v-895.9z"/><path d="M2082.14 1058.95h7.58v895.9h-7.58v-895.9z"/><path d="M2089.72 1058.95h7.58v895.9h-7.58v-895.9z"/><path d="M2097.3 1058.95h7.58v895.9h-7.58v-895.9z"/><path d="M2104.88 1058.95h7.58v895.9h-7.58v-895.9z"/><path d="M2112.46 1058.95h7.58v895.9h-7.58v-895.9z"/><path d="M2120.04 1058.95h7.58v895.9h-7.58v-895.9z"/><path d="M2127.63 1058.95h7.58v895.9h-7.57v-895.9z"/><path d="M2135.2 1058.95h7.58v895.9h-7.58v-895.9z"/><path d="M2142.8 1058.95h7.57v895.9h-7.58v-895.9z"/><path d="M2150.37 1058.95h7.58v895.9h-7.58v-895.9z"/><path d="M2157.95 1058.95h7.58v895.9h-7.58v-895.9z"/><path d="M2165.53 1058.95h7.58v895.9h-7.57v-895.9z"/><path d="M2173.1 1058.95h7.6v895.9h-7.6v-895.9z"/><path d="M2180.7 1058.95h7.57v895.9h-7.58v-895.9z"/><path d="M2188.27 1058.95h7.58v895.9h-7.58v-895.9z"/><path d="M2195.85 1058.95h7.58v895.9h-7.58v-895.9z"/><path d="M2203.43 1058.95h7.58v895.9h-7.57v-895.9z"/><path d="M2211 1058.95h7.6v895.9h-7.6v-895.9z"/><path d="M2218.6 1058.95h7.57v895.9h-7.58v-895.9z"/><path d="M2226.17 1058.95h7.58v895.9h-7.58v-895.9z"/><path d="M2233.75 1058.95h7.58v895.9h-7.58v-895.9z"/><path d="M2241.33 1058.95h7.58v895.9h-7.57v-895.9z"/><path d="M2248.9 1058.95h7.6v895.9h-7.6v-895.9z"/><path d="M2256.5 1058.95h7.58v895.9h-7.58v-895.9z"/><path d="M2264.07 1058.95h7.58v895.9h-7.58v-895.9z"/><path d="M2271.66 1058.95h7.58v895.9h-7.58v-895.9z"/><path d="M2279.24 1058.95h7.58v895.9h-7.58v-895.9z"/><path d="M2286.82 1058.95h7.58v895.9h-7.58v-895.9z"/><path d="M2294.4 1058.95h7.58v895.9h-7.58v-895.9z"/><path d="M2301.98 1058.95h7.58v895.9h-7.58v-895.9z"/><path d="M2309.56 1058.95h7.58v895.9h-7.58v-895.9z"/><path d="M2317.14 1058.95h7.58v895.9h-7.58v-895.9z"/><path d="M2324.72 1058.95h7.58v895.9h-7.58v-895.9z"/><path d="M2332.3 1058.95h7.58v895.9h-7.58v-895.9z"/><path d="M2339.88 1058.95h7.58v895.9h-7.58v-895.9z"/><path d="M2347.46 1058.95h7.58v895.9h-7.58v-895.9z"/><path d="M2355.04 1058.95h7.58v895.9h-7.58v-895.9z"/><path d="M2362.63 1058.95h7.58v895.9h-7.57v-895.9z"/><path d="M2370.2 1058.95h7.58v895.9h-7.58v-895.9z"/><path d="M2377.8 1058.95h7.57v895.9h-7.58v-895.9z"/><path d="M2385.36 1058.95h7.58v895.9h-7.58v-895.9z"/><path d="M2392.95 1058.95h7.58v895.9h-7.58v-895.9z"/><path d="M2400.53 1058.95h7.58v895.9h-7.57v-895.9z"/><path d="M2408.1 1058.95h7.6v895.9h-7.6v-895.9z"/><path d="M2415.7 1058.95h7.57v895.9h-7.58v-895.9z"/><path d="M2423.27 1058.95h7.58v895.9h-7.58v-895.9z"/><path d="M2430.85 1058.95h7.58v895.9h-7.58v-895.9z"/><path d="M2438.43 1058.95h7.58v895.9h-7.57v-895.9z"/><path d="M2446 1058.95h7.6v895.9h-7.6v-895.9z"/><path d="M2453.6 1058.95h7.57v895.9h-7.58v-895.9z"/><path d="M2461.17 1058.95h7.58v895.9h-7.58v-895.9z"/><path d="M2468.75 1058.95h7.58v895.9h-7.58v-895.9z"/><path d="M2476.33 1058.95h7.58v895.9h-7.57v-895.9z"/><path d="M2483.9 1058.95h7.6v895.9h-7.6v-895.9z"/><path d="M2491.5 1058.95h7.57v895.9h-7.58v-895.9z"/><path d="M2499.07 1058.95h7.58v895.9h-7.58v-895.9z"/><path d="M2506.66 1058.95h7.58v895.9h-7.58v-895.9z"/><path d="M2514.23 1058.95h7.58v895.9h-7.57v-895.9z"/><path d="M2521.82 1058.95h7.58v895.9h-7.58v-895.9z"/><path d="M2529.4 1058.95h7.58v895.9h-7.58v-895.9z"/><path d="M2536.98 1058.95h7.58v895.9h-7.58v-895.9z"/><path d="M2544.56 1058.95h7.58v895.9h-7.58v-895.9z"/><path d="M2552.14 1058.95h7.58v895.9h-7.58v-895.9z"/><path d="M2559.72 1058.95h7.58v895.9h-7.58v-895.9z"/><path d="M2567.3 1058.95h7.58v895.9h-7.58v-895.9z"/><path d="M2574.88 1058.95h7.58v895.9h-7.58v-895.9z"/><path d="M2582.46 1058.95h7.58v895.9h-7.58v-895.9z"/><path d="M2590.04 1058.95h7.58v895.9h-7.58v-895.9z"/><path d="M2597.62 1058.95h7.58v895.9h-7.58v-895.9z"/><path d="M2605.2 1058.95h7.58v895.9h-7.58v-895.9z"/><path d="M2612.8 1058.95h7.57v895.9h-7.58v-895.9z"/><path d="M2620.36 1058.95h7.58v895.9h-7.58v-895.9z"/><path d="M2627.95 1058.95h7.58v895.9h-7.58v-895.9z"/><path d="M2635.53 1058.95h7.58v895.9h-7.57v-895.9z"/><path d="M2643.1 1058.95h7.6v895.9h-7.6v-895.9z"/><path d="M2650.7 1058.95h7.57v895.9h-7.58v-895.9z"/><path d="M2658.27 1058.95h7.58v895.9h-7.58v-895.9z"/><path d="M2665.85 1058.95h7.58v895.9h-7.58v-895.9z"/><path d="M2673.43 1058.95h7.58v895.9h-7.57v-895.9z"/><path d="M2681 1058.95h7.6v895.9h-7.6v-895.9z"/><path d="M2688.6 1058.95h7.57v895.9h-7.58v-895.9z"/></g></g><g fill="#fff"><g clip-path="url(#d)" transform="matrix(.055 0 0 -.054 2.157 292.738)"><path d="M1628.98 3012.94h8.23v411.22H1629v-411.22z"/><path d="M1637.2 3012.94h8.24v411.22h-8.23v-411.22z"/><path d="M1645.44 3012.94h8.23v411.22h-8.23v-411.22z"/><path d="M1653.67 3012.94h8.23v411.22h-8.23v-411.22z"/><path d="M1661.9 3012.94h8.23v411.22h-8.23v-411.22z"/><path d="M1670.13 3012.94h8.23v411.22h-8.23v-411.22z"/><path d="M1678.36 3012.94h8.23v411.22h-8.24v-411.22z"/><path d="M1686.6 3012.94h8.22v411.22h-8.23v-411.22z"/><path d="M1694.82 3012.94h8.23v411.22h-8.23v-411.22z"/><path d="M1703.05 3012.94h8.23v411.22h-8.23v-411.22z"/><path d="M1711.28 3012.94h8.23v411.22h-8.22v-411.22z"/><path d="M1719.5 3012.94h8.24v411.22h-8.23v-411.22z"/><path d="M1727.74 3012.94h8.23v411.22h-8.23v-411.22z"/><path d="M1735.97 3012.94h8.23v411.22h-8.23v-411.22z"/><path d="M1744.2 3012.94h8.23v411.22h-8.23v-411.22z"/><path d="M1752.43 3012.94h8.23v411.22h-8.23v-411.22z"/><path d="M1760.66 3012.94h8.23v411.22h-8.24v-411.22z"/><path d="M1768.9 3012.94h8.22v411.22h-8.23v-411.22z"/><path d="M1777.12 3012.94h8.23v411.22h-8.23v-411.22z"/><path d="M1785.35 3012.94h8.23v411.22h-8.23v-411.22z"/><path d="M1793.58 3012.94h8.23v411.22h-8.22v-411.22z"/><path d="M1801.8 3012.94h8.24v411.22h-8.23v-411.22z"/><path d="M1810.04 3012.94h8.23v411.22h-8.23v-411.22z"/><path d="M1818.27 3012.94h8.23v411.22h-8.23v-411.22z"/><path d="M1826.5 3012.94h8.23v411.22h-8.23v-411.22z"/><path d="M1834.73 3012.94h8.23v411.22h-8.23v-411.22z"/><path d="M1842.96 3012.94h8.23v411.22h-8.24v-411.22z"/><path d="M1851.2 3012.94h8.23v411.22h-8.23v-411.22z"/><path d="M1859.43 3012.94h8.23v411.22h-8.23v-411.22z"/><path d="M1867.66 3012.94h8.23v411.22h-8.24v-411.22z"/><path d="M1875.88 3012.94h8.23v411.22h-8.22v-411.22z"/><path d="M1884.1 3012.94h8.24v411.22h-8.23v-411.22z"/><path d="M1892.34 3012.94h8.23v411.22h-8.23v-411.22z"/><path d="M1900.57 3012.94h8.23v411.22h-8.23v-411.22z"/><path d="M1908.8 3012.94h8.23v411.22h-8.23v-411.22z"/><path d="M1917.04 3012.94h8.23v411.22h-8.23v-411.22z"/><path d="M1925.27 3012.94h8.23v411.22h-8.23v-411.22z"/><path d="M1933.5 3012.94h8.23v411.22h-8.23v-411.22z"/><path d="M1941.73 3012.94h8.23v411.22h-8.23v-411.22z"/><path d="M1949.96 3012.94h8.23v411.22h-8.24v-411.22z"/><path d="M1958.2 3012.94h8.22v411.22h-8.23v-411.22z"/><path d="M1966.42 3012.94h8.23v411.22h-8.23v-411.22z"/><path d="M1974.65 3012.94h8.23v411.22h-8.23v-411.22z"/><path d="M1982.88 3012.94h8.23v411.22h-8.22v-411.22z"/><path d="M1991.1 3012.94h8.24v411.22h-8.23v-411.22z"/><path d="M1999.34 3012.94h8.23v411.22h-8.23v-411.22z"/><path d="M2007.57 3012.94h8.23v411.22h-8.23v-411.22z"/><path d="M2015.8 3012.94h8.23v411.22h-8.23v-411.22z"/><path d="M2024.03 3012.94h8.23v411.22h-8.23v-411.22z"/><path d="M2032.26 3012.94h8.23v411.22h-8.24v-411.22z"/><path d="M2040.5 3012.94h8.22v411.22h-8.23v-411.22z"/><path d="M2048.72 3012.94h8.23v411.22h-8.23v-411.22z"/><path d="M2056.95 3012.94h8.23v411.22h-8.23v-411.22z"/><path d="M2065.18 3012.94h8.23v411.22h-8.22v-411.22z"/><path d="M2073.4 3012.94h8.24v411.22h-8.23v-411.22z"/><path d="M2081.64 3012.94h8.23v411.22h-8.23v-411.22z"/><path d="M2089.87 3012.94h8.23v411.22h-8.23v-411.22z"/><path d="M2098.1 3012.94h8.23v411.22h-8.23v-411.22z"/><path d="M2106.33 3012.94h8.23v411.22h-8.23v-411.22z"/><path d="M2114.56 3012.94h8.23v411.22h-8.24v-411.22z"/><path d="M2122.8 3012.94h8.22v411.22h-8.23v-411.22z"/><path d="M2131.02 3012.94h8.23v411.22h-8.23v-411.22z"/><path d="M2139.25 3012.94h8.23v411.22h-8.23v-411.22z"/><path d="M2147.48 3012.94h8.23v411.22h-8.22v-411.22z"/><path d="M2155.7 3012.94h8.24v411.22h-8.23v-411.22z"/><path d="M2163.94 3012.94h8.23v411.22h-8.23v-411.22z"/><path d="M2172.17 3012.94h8.23v411.22h-8.23v-411.22z"/><path d="M2180.4 3012.94h8.23v411.22h-8.23v-411.22z"/><path d="M2188.63 3012.94h8.23v411.22h-8.23v-411.22z"/><path d="M2196.86 3012.94h8.23v411.22h-8.24v-411.22z"/><path d="M2205.1 3012.94h8.22v411.22h-8.23v-411.22z"/><path d="M2213.32 3012.94h8.23v411.22h-8.23v-411.22z"/><path d="M2221.55 3012.94h8.23v411.22h-8.23v-411.22z"/><path d="M2229.78 3012.94h8.23v411.22h-8.22v-411.22z"/><path d="M2238 3012.94h8.24v411.22H2238v-411.22z"/><path d="M2246.24 3012.94h8.23v411.22h-8.23v-411.22z"/><path d="M2254.47 3012.94h8.23v411.22h-8.23v-411.22z"/><path d="M2262.7 3012.94h8.23v411.22h-8.23v-411.22z"/><path d="M2270.93 3012.94h8.23v411.22h-8.23v-411.22z"/><path d="M2279.16 3012.94h8.23v411.22h-8.24v-411.22z"/><path d="M2287.4 3012.94h8.22v411.22h-8.23v-411.22z"/><path d="M2295.62 3012.94h8.23v411.22h-8.23v-411.22z"/><path d="M2303.85 3012.94h8.23v411.22h-8.23v-411.22z"/><path d="M2312.08 3012.94h8.23v411.22h-8.22v-411.22z"/><path d="M2320.3 3012.94h8.24v411.22h-8.23v-411.22z"/><path d="M2328.54 3012.94h8.23v411.22h-8.23v-411.22z"/><path d="M2336.77 3012.94h8.23v411.22h-8.23v-411.22z"/><path d="M2345 3012.94h8.23v411.22H2345v-411.22z"/><path d="M2353.23 3012.94h8.23v411.22h-8.23v-411.22z"/><path d="M2361.46 3012.94h8.23v411.22h-8.24v-411.22z"/><path d="M2369.7 3012.94h8.23v411.22h-8.23v-411.22z"/><path d="M2377.93 3012.94h8.23v411.22h-8.23v-411.22z"/><path d="M2386.16 3012.94h8.23v411.22h-8.24v-411.22z"/><path d="M2394.38 3012.94h8.23v411.22h-8.22v-411.22z"/><path d="M2402.6 3012.94h8.24v411.22h-8.23v-411.22z"/><path d="M2410.84 3012.94h8.23v411.22h-8.23v-411.22z"/><path d="M2419.07 3012.94h8.23v411.22h-8.23v-411.22z"/><path d="M2427.3 3012.94h8.23v411.22h-8.23v-411.22z"/><path d="M2435.54 3012.94h8.23v411.22h-8.23v-411.22z"/><path d="M2443.77 3012.94h8.23v411.22h-8.23v-411.22z"/><path d="M2452 3012.94h8.23v411.22H2452v-411.22z"/><path d="M2460.23 3012.94h8.23v411.22h-8.23v-411.22z"/><path d="M2468.46 3012.94h8.23v411.22h-8.24v-411.22z"/><path d="M2476.7 3012.94h8.22v411.22h-8.23v-411.22z"/><path d="M2484.92 3012.94h8.23v411.22h-8.23v-411.22z"/><path d="M2493.15 3012.94h8.23v411.22h-8.23v-411.22z"/><path d="M2501.38 3012.94h8.23v411.22h-8.22v-411.22z"/><path d="M2509.6 3012.94h8.24v411.22h-8.23v-411.22z"/><path d="M2517.84 3012.94h8.23v411.22h-8.23v-411.22z"/><path d="M2526.07 3012.94h8.23v411.22h-8.23v-411.22z"/><path d="M2534.3 3012.94h8.23v411.22h-8.23v-411.22z"/><path d="M2542.53 3012.94h8.23v411.22h-8.23v-411.22z"/><path d="M2550.76 3012.94h8.23v411.22h-8.24v-411.22z"/><path d="M2559 3012.94h8.22v411.22H2559v-411.22z"/><path d="M2567.22 3012.94h8.23v411.22h-8.23v-411.22z"/><path d="M2575.45 3012.94h8.23v411.22h-8.23v-411.22z"/><path d="M2583.68 3012.94h8.23v411.22h-8.22v-411.22z"/><path d="M2591.9 3012.94h8.24v411.22h-8.23v-411.22z"/><path d="M2600.14 3012.94h8.23v411.22h-8.23v-411.22z"/><path d="M2608.37 3012.94h8.23v411.22h-8.23v-411.22z"/><path d="M2616.6 3012.94h8.23v411.22h-8.23v-411.22z"/><path d="M2624.83 3012.94h8.23v411.22h-8.23v-411.22z"/><path d="M2633.06 3012.94h8.23v411.22h-8.24v-411.22z"/><path d="M2641.3 3012.94h8.22v411.22h-8.23v-411.22z"/><path d="M2649.52 3012.94h8.23v411.22h-8.23v-411.22z"/><path d="M2657.75 3012.94h8.23v411.22h-8.23v-411.22z"/><path d="M2665.98 3012.94h8.23v411.22H2666v-411.22z"/><path d="M2674.2 3012.94h8.24v411.22h-8.23v-411.22z"/><path d="M2682.44 3012.94h8.23v411.22h-8.23v-411.22z"/><path d="M2690.67 3012.94h8.23v411.22h-8.23v-411.22z"/><path d="M2698.9 3012.94h8.23v411.22h-8.23v-411.22z"/><path d="M2707.13 3012.94h8.23v411.22h-8.23v-411.22z"/><path d="M2715.36 3012.94h8.23v411.22h-8.24v-411.22z"/><path d="M2723.6 3012.94h8.22v411.22h-8.23v-411.22z"/><path d="M2731.82 3012.94h8.23v411.22h-8.23v-411.22z"/><path d="M2740.05 3012.94h8.23v411.22h-8.23v-411.22z"/><path d="M2748.28 3012.94h8.23v411.22h-8.22v-411.22z"/><path d="M2756.5 3012.94h8.24v411.22h-8.23v-411.22z"/><path d="M2764.74 3012.94h8.23v411.22h-8.23v-411.22z"/><path d="M2772.97 3012.94h8.23v411.22h-8.23v-411.22z"/><path d="M2781.2 3012.94h8.23v411.22h-8.23v-411.22z"/><path d="M2789.43 3012.94h8.23v411.22h-8.23v-411.22z"/><path d="M2797.66 3012.94h8.23v411.22h-8.24v-411.22z"/><path d="M2805.9 3012.94h8.22v411.22h-8.23v-411.22z"/><path d="M2814.12 3012.94h8.23v411.22h-8.23v-411.22z"/><path d="M2822.35 3012.94h8.23v411.22h-8.23v-411.22z"/><path d="M2830.58 3012.94h8.23v411.22h-8.22v-411.22z"/><path d="M2838.8 3012.94h8.24v411.22h-8.23v-411.22z"/><path d="M2847.04 3012.94h8.23v411.22h-8.23v-411.22z"/><path d="M2855.27 3012.94h8.23v411.22h-8.23v-411.22z"/><path d="M2863.5 3012.94h8.23v411.22h-8.23v-411.22z"/><path d="M2871.73 3012.94h8.23v411.22h-8.23v-411.22z"/><path d="M2879.96 3012.94h8.23v411.22h-8.24v-411.22z"/><path d="M2888.2 3012.94h8.23v411.22h-8.23v-411.22z"/><path d="M2896.43 3012.94h8.23v411.22h-8.23v-411.22z"/><path d="M2904.66 3012.94h8.23v411.22h-8.24v-411.22z"/><path d="M2912.88 3012.94h8.23v411.22h-8.22v-411.22z"/><path d="M2921.1 3012.94h8.24v411.22h-8.23v-411.22z"/><path d="M2929.34 3012.94h8.23v411.22h-8.23v-411.22z"/><path d="M2937.57 3012.94h8.23v411.22h-8.23v-411.22z"/><path d="M2945.8 3012.94h8.23v411.22h-8.23v-411.22z"/><path d="M2954.04 3012.94h8.23v411.22h-8.23v-411.22z"/><path d="M2962.27 3012.94h8.23v411.22h-8.23v-411.22z"/><path d="M2970.5 3012.94h8.23v411.22h-8.23v-411.22z"/><path d="M2978.73 3012.94h8.23v411.22h-8.23v-411.22z"/><path d="M2986.96 3012.94h8.23v411.22h-8.24v-411.22z"/><path d="M2995.2 3012.94h8.22v411.22h-8.23v-411.22z"/><path d="M3003.42 3012.94h8.23v411.22h-8.23v-411.22z"/><path d="M3011.64 3012.94h8.23v411.22h-8.23v-411.22z"/><path d="M3019.88 3012.94h8.23v411.22h-8.22v-411.22z"/><path d="M3028.1 3012.94h8.24v411.22h-8.23v-411.22z"/><path d="M3036.34 3012.94h8.23v411.22h-8.23v-411.22z"/><path d="M3044.57 3012.94h8.23v411.22h-8.23v-411.22z"/><path d="M3052.8 3012.94h8.23v411.22h-8.23v-411.22z"/><path d="M3061.03 3012.94h8.23v411.22h-8.23v-411.22z"/><path d="M3069.26 3012.94h8.23v411.22h-8.24v-411.22z"/><path d="M3077.5 3012.94h8.22v411.22h-8.23v-411.22z"/><path d="M3085.72 3012.94h8.23v411.22h-8.23v-411.22z"/><path d="M3093.95 3012.94h8.23v411.22h-8.23v-411.22z"/><path d="M3102.18 3012.94h8.23v411.22h-8.22v-411.22z"/><path d="M3110.4 3012.94h8.24v411.22h-8.23v-411.22z"/><path d="M3118.64 3012.94h8.23v411.22h-8.23v-411.22z"/><path d="M3126.87 3012.94h8.23v411.22h-8.23v-411.22z"/><path d="M3135.1 3012.94h8.23v411.22h-8.23v-411.22z"/><path d="M3143.33 3012.94h8.23v411.22h-8.23v-411.22z"/><path d="M3151.56 3012.94h8.23v411.22h-8.24v-411.22z"/><path d="M3159.8 3012.94h8.22v411.22h-8.23v-411.22z"/><path d="M3168.02 3012.94h8.23v411.22h-8.23v-411.22z"/><path d="M3176.25 3012.94h8.23v411.22h-8.23v-411.22z"/><path d="M3184.48 3012.94h8.23v411.22h-8.22v-411.22z"/><path d="M3192.7 3012.94h8.24v411.22h-8.23v-411.22z"/><path d="M3200.94 3012.94h8.23v411.22h-8.23v-411.22z"/><path d="M3209.17 3012.94h8.23v411.22h-8.23v-411.22z"/><path d="M3217.4 3012.94h8.23v411.22h-8.23v-411.22z"/><path d="M3225.63 3012.94h8.23v411.22h-8.23v-411.22z"/><path d="M3233.86 3012.94h8.23v411.22h-8.24v-411.22z"/><path d="M3242.1 3012.94h8.22v411.22h-8.23v-411.22z"/><path d="M3250.32 3012.94h8.23v411.22h-8.23v-411.22z"/><path d="M3258.55 3012.94h8.23v411.22h-8.23v-411.22z"/><path d="M3266.78 3012.94h8.23v411.22h-8.22v-411.22z"/><path d="M3275 3012.94h8.24v411.22H3275v-411.22z"/><path d="M3283.24 3012.94h8.23v411.22h-8.23v-411.22z"/><path d="M3291.47 3012.94h8.23v411.22h-8.23v-411.22z"/><path d="M3299.7 3012.94h8.23v411.22h-8.23v-411.22z"/><path d="M3307.93 3012.94h8.23v411.22h-8.23v-411.22z"/><path d="M3316.16 3012.94h8.23v411.22h-8.24v-411.22z"/><path d="M3324.4 3012.94h8.22v411.22h-8.23v-411.22z"/><path d="M3332.62 3012.94h8.23v411.22h-8.23v-411.22z"/><path d="M3340.85 3012.94h8.23v411.22h-8.23v-411.22z"/><path d="M3349.08 3012.94h8.23v411.22h-8.22v-411.22z"/><path d="M3357.3 3012.94h8.24v411.22h-8.23v-411.22z"/><path d="M3365.54 3012.94h8.23v411.22h-8.23v-411.22z"/><path d="M3373.77 3012.94h8.23v411.22h-8.23v-411.22z"/><path d="M3382 3012.94h8.23v411.22H3382v-411.22z"/><path d="M3390.23 3012.94h8.23v411.22h-8.23v-411.22z"/><path d="M3398.46 3012.94h8.23v411.22h-8.24v-411.22z"/><path d="M3406.7 3012.94h8.23v411.22h-8.23v-411.22z"/><path d="M3414.93 3012.94h8.23v411.22h-8.23v-411.22z"/><path d="M3423.15 3012.94h8.23v411.22h-8.23v-411.22z"/><path d="M3431.38 3012.94h8.23v411.22h-8.22v-411.22z"/><path d="M3439.6 3012.94h8.24v411.22h-8.23v-411.22z"/><path d="M3447.84 3012.94h8.23v411.22h-8.23v-411.22z"/><path d="M3456.07 3012.94h8.23v411.22h-8.23v-411.22z"/><path d="M3464.3 3012.94h8.23v411.22h-8.23v-411.22z"/><path d="M3472.54 3012.94h8.23v411.22h-8.23v-411.22z"/><path d="M3480.77 3012.94h8.23v411.22h-8.23v-411.22z"/><path d="M3489 3012.94h8.23v411.22H3489v-411.22z"/><path d="M3497.23 3012.94h8.23v411.22h-8.23v-411.22z"/><path d="M3505.46 3012.94h8.23v411.22h-8.24v-411.22z"/><path d="M3513.7 3012.94h8.22v411.22h-8.23v-411.22z"/><path d="M3521.92 3012.94h8.23v411.22h-8.23v-411.22z"/><path d="M3530.14 3012.94h8.23v411.22h-8.23v-411.22z"/><path d="M3538.38 3012.94h8.23v411.22h-8.22v-411.22z"/><path d="M3546.6 3012.94h8.24v411.22h-8.23v-411.22z"/><path d="M3554.84 3012.94h8.23v411.22h-8.23v-411.22z"/><path d="M3563.07 3012.94h8.23v411.22h-8.23v-411.22z"/><path d="M3571.3 3012.94h8.23v411.22h-8.23v-411.22z"/><path d="M3579.53 3012.94h8.23v411.22h-8.23v-411.22z"/><path d="M3587.76 3012.94h8.23v411.22h-8.24v-411.22z"/><path d="M3596 3012.94h8.22v411.22H3596v-411.22z"/><path d="M3604.22 3012.94h8.23v411.22h-8.23v-411.22z"/><path d="M3612.45 3012.94h8.23v411.22h-8.23v-411.22z"/><path d="M3620.68 3012.94h8.23v411.22h-8.22v-411.22z"/><path d="M3628.9 3012.94h8.24v411.22h-8.23v-411.22z"/><path d="M3637.14 3012.94h8.23v411.22h-8.23v-411.22z"/><path d="M3645.37 3012.94h8.23v411.22h-8.23v-411.22z"/><path d="M3653.6 3012.94h8.23v411.22h-8.23v-411.22z"/><path d="M3661.83 3012.94h8.23v411.22h-8.23v-411.22z"/><path d="M3670.06 3012.94h8.23v411.22h-8.24v-411.22z"/><path d="M3678.3 3012.94h8.22v411.22h-8.23v-411.22z"/><path d="M3686.52 3012.94h8.23v411.22h-8.23v-411.22z"/><path d="M3694.75 3012.94h8.23v411.22h-8.23v-411.22z"/><path d="M3702.98 3012.94h8.23v411.22H3703v-411.22z"/><path d="M3711.2 3012.94h8.24v411.22h-8.23v-411.22z"/><path d="M3719.44 3012.94h8.23v411.22h-8.23v-411.22z"/><path d="M3727.67 3012.94h8.23v411.22h-8.23v-411.22z"/></g></g><g fill="#fff"><g clip-path="url(#e)" transform="matrix(.055 0 0 -.054 2.157 292.738)"><path d="M1628.98 3012.94h8.23v411.22H1629v-411.22z"/><path d="M1637.2 3012.94h8.24v411.22h-8.23v-411.22z"/><path d="M1645.44 3012.94h8.23v411.22h-8.23v-411.22z"/><path d="M1653.67 3012.94h8.23v411.22h-8.23v-411.22z"/><path d="M1661.9 3012.94h8.23v411.22h-8.23v-411.22z"/><path d="M1670.13 3012.94h8.23v411.22h-8.23v-411.22z"/><path d="M1678.36 3012.94h8.23v411.22h-8.24v-411.22z"/><path d="M1686.6 3012.94h8.22v411.22h-8.23v-411.22z"/><path d="M1694.82 3012.94h8.23v411.22h-8.23v-411.22z"/><path d="M1703.05 3012.94h8.23v411.22h-8.23v-411.22z"/><path d="M1711.28 3012.94h8.23v411.22h-8.22v-411.22z"/><path d="M1719.5 3012.94h8.24v411.22h-8.23v-411.22z"/><path d="M1727.74 3012.94h8.23v411.22h-8.23v-411.22z"/><path d="M1735.97 3012.94h8.23v411.22h-8.23v-411.22z"/><path d="M1744.2 3012.94h8.23v411.22h-8.23v-411.22z"/><path d="M1752.43 3012.94h8.23v411.22h-8.23v-411.22z"/><path d="M1760.66 3012.94h8.23v411.22h-8.24v-411.22z"/><path d="M1768.9 3012.94h8.22v411.22h-8.23v-411.22z"/><path d="M1777.12 3012.94h8.23v411.22h-8.23v-411.22z"/><path d="M1785.35 3012.94h8.23v411.22h-8.23v-411.22z"/><path d="M1793.58 3012.94h8.23v411.22h-8.22v-411.22z"/><path d="M1801.8 3012.94h8.24v411.22h-8.23v-411.22z"/><path d="M1810.04 3012.94h8.23v411.22h-8.23v-411.22z"/><path d="M1818.27 3012.94h8.23v411.22h-8.23v-411.22z"/><path d="M1826.5 3012.94h8.23v411.22h-8.23v-411.22z"/><path d="M1834.73 3012.94h8.23v411.22h-8.23v-411.22z"/><path d="M1842.96 3012.94h8.23v411.22h-8.24v-411.22z"/><path d="M1851.2 3012.94h8.23v411.22h-8.23v-411.22z"/><path d="M1859.43 3012.94h8.23v411.22h-8.23v-411.22z"/><path d="M1867.66 3012.94h8.23v411.22h-8.24v-411.22z"/><path d="M1875.88 3012.94h8.23v411.22h-8.22v-411.22z"/><path d="M1884.1 3012.94h8.24v411.22h-8.23v-411.22z"/><path d="M1892.34 3012.94h8.23v411.22h-8.23v-411.22z"/><path d="M1900.57 3012.94h8.23v411.22h-8.23v-411.22z"/><path d="M1908.8 3012.94h8.23v411.22h-8.23v-411.22z"/><path d="M1917.04 3012.94h8.23v411.22h-8.23v-411.22z"/><path d="M1925.27 3012.94h8.23v411.22h-8.23v-411.22z"/><path d="M1933.5 3012.94h8.23v411.22h-8.23v-411.22z"/><path d="M1941.73 3012.94h8.23v411.22h-8.23v-411.22z"/><path d="M1949.96 3012.94h8.23v411.22h-8.24v-411.22z"/><path d="M1958.2 3012.94h8.22v411.22h-8.23v-411.22z"/><path d="M1966.42 3012.94h8.23v411.22h-8.23v-411.22z"/><path d="M1974.65 3012.94h8.23v411.22h-8.23v-411.22z"/><path d="M1982.88 3012.94h8.23v411.22h-8.22v-411.22z"/><path d="M1991.1 3012.94h8.24v411.22h-8.23v-411.22z"/><path d="M1999.34 3012.94h8.23v411.22h-8.23v-411.22z"/><path d="M2007.57 3012.94h8.23v411.22h-8.23v-411.22z"/><path d="M2015.8 3012.94h8.23v411.22h-8.23v-411.22z"/><path d="M2024.03 3012.94h8.23v411.22h-8.23v-411.22z"/><path d="M2032.26 3012.94h8.23v411.22h-8.24v-411.22z"/><path d="M2040.5 3012.94h8.22v411.22h-8.23v-411.22z"/><path d="M2048.72 3012.94h8.23v411.22h-8.23v-411.22z"/><path d="M2056.95 3012.94h8.23v411.22h-8.23v-411.22z"/><path d="M2065.18 3012.94h8.23v411.22h-8.22v-411.22z"/><path d="M2073.4 3012.94h8.24v411.22h-8.23v-411.22z"/><path d="M2081.64 3012.94h8.23v411.22h-8.23v-411.22z"/><path d="M2089.87 3012.94h8.23v411.22h-8.23v-411.22z"/><path d="M2098.1 3012.94h8.23v411.22h-8.23v-411.22z"/><path d="M2106.33 3012.94h8.23v411.22h-8.23v-411.22z"/><path d="M2114.56 3012.94h8.23v411.22h-8.24v-411.22z"/><path d="M2122.8 3012.94h8.22v411.22h-8.23v-411.22z"/><path d="M2131.02 3012.94h8.23v411.22h-8.23v-411.22z"/><path d="M2139.25 3012.94h8.23v411.22h-8.23v-411.22z"/><path d="M2147.48 3012.94h8.23v411.22h-8.22v-411.22z"/><path d="M2155.7 3012.94h8.24v411.22h-8.23v-411.22z"/><path d="M2163.94 3012.94h8.23v411.22h-8.23v-411.22z"/><path d="M2172.17 3012.94h8.23v411.22h-8.23v-411.22z"/><path d="M2180.4 3012.94h8.23v411.22h-8.23v-411.22z"/><path d="M2188.63 3012.94h8.23v411.22h-8.23v-411.22z"/><path d="M2196.86 3012.94h8.23v411.22h-8.24v-411.22z"/><path d="M2205.1 3012.94h8.22v411.22h-8.23v-411.22z"/><path d="M2213.32 3012.94h8.23v411.22h-8.23v-411.22z"/><path d="M2221.55 3012.94h8.23v411.22h-8.23v-411.22z"/><path d="M2229.78 3012.94h8.23v411.22h-8.22v-411.22z"/><path d="M2238 3012.94h8.24v411.22H2238v-411.22z"/><path d="M2246.24 3012.94h8.23v411.22h-8.23v-411.22z"/><path d="M2254.47 3012.94h8.23v411.22h-8.23v-411.22z"/><path d="M2262.7 3012.94h8.23v411.22h-8.23v-411.22z"/><path d="M2270.93 3012.94h8.23v411.22h-8.23v-411.22z"/><path d="M2279.16 3012.94h8.23v411.22h-8.24v-411.22z"/><path d="M2287.4 3012.94h8.22v411.22h-8.23v-411.22z"/><path d="M2295.62 3012.94h8.23v411.22h-8.23v-411.22z"/><path d="M2303.85 3012.94h8.23v411.22h-8.23v-411.22z"/><path d="M2312.08 3012.94h8.23v411.22h-8.22v-411.22z"/><path d="M2320.3 3012.94h8.24v411.22h-8.23v-411.22z"/><path d="M2328.54 3012.94h8.23v411.22h-8.23v-411.22z"/><path d="M2336.77 3012.94h8.23v411.22h-8.23v-411.22z"/><path d="M2345 3012.94h8.23v411.22H2345v-411.22z"/><path d="M2353.23 3012.94h8.23v411.22h-8.23v-411.22z"/><path d="M2361.46 3012.94h8.23v411.22h-8.24v-411.22z"/><path d="M2369.7 3012.94h8.23v411.22h-8.23v-411.22z"/><path d="M2377.93 3012.94h8.23v411.22h-8.23v-411.22z"/><path d="M2386.16 3012.94h8.23v411.22h-8.24v-411.22z"/><path d="M2394.38 3012.94h8.23v411.22h-8.22v-411.22z"/><path d="M2402.6 3012.94h8.24v411.22h-8.23v-411.22z"/><path d="M2410.84 3012.94h8.23v411.22h-8.23v-411.22z"/><path d="M2419.07 3012.94h8.23v411.22h-8.23v-411.22z"/><path d="M2427.3 3012.94h8.23v411.22h-8.23v-411.22z"/><path d="M2435.54 3012.94h8.23v411.22h-8.23v-411.22z"/><path d="M2443.77 3012.94h8.23v411.22h-8.23v-411.22z"/><path d="M2452 3012.94h8.23v411.22H2452v-411.22z"/><path d="M2460.23 3012.94h8.23v411.22h-8.23v-411.22z"/><path d="M2468.46 3012.94h8.23v411.22h-8.24v-411.22z"/><path d="M2476.7 3012.94h8.22v411.22h-8.23v-411.22z"/><path d="M2484.92 3012.94h8.23v411.22h-8.23v-411.22z"/><path d="M2493.15 3012.94h8.23v411.22h-8.23v-411.22z"/><path d="M2501.38 3012.94h8.23v411.22h-8.22v-411.22z"/><path d="M2509.6 3012.94h8.24v411.22h-8.23v-411.22z"/><path d="M2517.84 3012.94h8.23v411.22h-8.23v-411.22z"/><path d="M2526.07 3012.94h8.23v411.22h-8.23v-411.22z"/><path d="M2534.3 3012.94h8.23v411.22h-8.23v-411.22z"/><path d="M2542.53 3012.94h8.23v411.22h-8.23v-411.22z"/><path d="M2550.76 3012.94h8.23v411.22h-8.24v-411.22z"/><path d="M2559 3012.94h8.22v411.22H2559v-411.22z"/><path d="M2567.22 3012.94h8.23v411.22h-8.23v-411.22z"/><path d="M2575.45 3012.94h8.23v411.22h-8.23v-411.22z"/><path d="M2583.68 3012.94h8.23v411.22h-8.22v-411.22z"/><path d="M2591.9 3012.94h8.24v411.22h-8.23v-411.22z"/><path d="M2600.14 3012.94h8.23v411.22h-8.23v-411.22z"/><path d="M2608.37 3012.94h8.23v411.22h-8.23v-411.22z"/><path d="M2616.6 3012.94h8.23v411.22h-8.23v-411.22z"/><path d="M2624.83 3012.94h8.23v411.22h-8.23v-411.22z"/><path d="M2633.06 3012.94h8.23v411.22h-8.24v-411.22z"/><path d="M2641.3 3012.94h8.22v411.22h-8.23v-411.22z"/><path d="M2649.52 3012.94h8.23v411.22h-8.23v-411.22z"/><path d="M2657.75 3012.94h8.23v411.22h-8.23v-411.22z"/><path d="M2665.98 3012.94h8.23v411.22H2666v-411.22z"/><path d="M2674.2 3012.94h8.24v411.22h-8.23v-411.22z"/><path d="M2682.44 3012.94h8.23v411.22h-8.23v-411.22z"/><path d="M2690.67 3012.94h8.23v411.22h-8.23v-411.22z"/></g></g></g></svg>