<?xml version="1.0" encoding="UTF-8" standalone="no"?>
<svg
   xmlns:dc="http://purl.org/dc/elements/1.1/"
   xmlns:cc="http://creativecommons.org/ns#"
   xmlns:rdf="http://www.w3.org/1999/02/22-rdf-syntax-ns#"
   xmlns:svg="http://www.w3.org/2000/svg"
   xmlns="http://www.w3.org/2000/svg"
   xmlns:sodipodi="http://sodipodi.sourceforge.net/DTD/sodipodi-0.dtd"
   xmlns:inkscape="http://www.inkscape.org/namespaces/inkscape"
   width="300"
   height="300"
   id="svg8036"
   version="1.1"
   inkscape:version="0.48.4 r9939"
   sodipodi:docname="html5_logo_optimized.svg">
  <metadata
     id="metadata8113">
    <rdf:RDF>
      <cc:Work
         rdf:about="">
        <dc:format>image/svg+xml</dc:format>
        <dc:type
           rdf:resource="http://purl.org/dc/dcmitype/StillImage" />
      </cc:Work>
    </rdf:RDF>
  </metadata>
  <sodipodi:namedview
     pagecolor="#ffffff"
     bordercolor="#666666"
     borderopacity="1"
     objecttolerance="10"
     gridtolerance="10"
     guidetolerance="10"
     inkscape:pageopacity="0"
     inkscape:pageshadow="2"
     inkscape:window-width="1855"
     inkscape:window-height="1056"
     id="namedview8111"
     showgrid="false"
     inkscape:zoom="2.2250293"
     inkscape:cx="92.581102"
     inkscape:cy="153.65601"
     inkscape:window-x="65"
     inkscape:window-y="24"
     inkscape:window-maximized="1"
     inkscape:current-layer="svg8036"
     inkscape:snap-page="true" />
  <linearGradient
     id="gradient-1"
     x1="0"
     y1="0"
     x2="0"
     y2="100%">
    <stop
       offset="30%"
       stop-color="#171F6A"
       id="stop8039" />
    <stop
       offset="40%"
       stop-color="#1220B5"
       id="stop8041" />
    <stop
       offset="60%"
       stop-color="#57B4FB"
       id="stop8043" />
    <stop
       offset="80%"
       stop-color="#fff"
       id="stop8045" />
    <stop
       offset="90%"
       stop-color="#666"
       id="stop8047" />
    <stop
       offset="95%"
       stop-color="#FF69B4"
       id="stop8049" />
    <stop
       offset="100%"
       stop-color="#FFF"
       id="stop8051" />
  </linearGradient>
  <defs
     id="defs8053">
    <clipPath
       id="clipPath8055">
      <path
         d="M2691.68 3012.94H1679.8l-50.82 411.22h1062.7v-411.22"
         id="path8057" />
    </clipPath>
    <clipPath
       id="clipPath8059">
      <path
         d="M3694.32 3012.94H2691.67v411.22h-1062.7H3735.9l-41.58-411.22"
         id="path8061" />
    </clipPath>
    <clipPath
       id="clipPath8063">
      <path
         d="M2691.68 1058.95l-857.9 253.67-55.45 642.24h423.58l27.74-332.67 457.42-115.52.74.2.8-.2 3.08.86v-448.6"
         id="path8065" />
    </clipPath>
    <clipPath
       id="clipPath8067">
      <path
         d="M2691.68 2178.25l-941.07 3-.04.63-32.3 401.36h973.42v-405"
         id="path8069" />
    </clipPath>
    <clipPath
       id="clipPath8071">
      <path
         d="M1749.1 2181.26l-32.33 401.98h1.5l32.3-401.36-1.46-.62"
         id="path8073" />
    </clipPath>
    <clipPath
       id="clipPath8075">
      <path
         d="M2693.23 1058.5l-.34.1-1.22.35v448.6l1.2.33 471.63 132.8 32.36 535.96-503.97 1.6h-1.22v405h-973.4H3658.9L3548 1308l-854.77-249.5m-6.17 448.18l-457.42 115.5-27.73 332.68h-423.57 425.08l27.73-332.67 456.67-115.3-.74-.22"
         id="path8077" />
    </clipPath>
    <clipPath
       id="clipPath8079">
      <path
         d="M2691.68 2584.27v405l56.83 23.67h945.82L2692.9 2584.78l-1.22-.5"
         id="path8081" />
    </clipPath>
    <clipPath
       id="clipPath8083">
      <path
         d="M2689.28 2583.24h-972.5l974.9 406.03v-405l-2.4-1.03"
         id="path8085" />
    </clipPath>
    <clipPath
       id="clipPath8087">
      <path
         d="M0 141.73h141.73V0H0v141.73z"
         id="path8089" />
    </clipPath>
    <clipPath
       id="a">
      <path
         inkscape:connector-curvature="0"
         d="M 0,141.73 H 141.73 V 0 H 0 v 141.73 z"
         id="path8385" />
    </clipPath>
  </defs>
  <path
     inkscape:connector-curvature="0"
     id="path8093"
     d="M 149.86459,299.77914 63.578347,275.82905 44.338211,60.231195 H 255.66179 L 236.3981,275.79373 149.85281,299.77914" />
  <path
     inkscape:connector-curvature="0"
     id="path8099"
     d="m 64.002243,1.615897 h 13.4469 V 14.921499 H 89.753881 V 1.615897 H 103.17723 V 41.83885 H 89.753881 V 28.368399 H 77.437369 V 41.83885 H 64.002243 V 1.615897" />
  <path
     inkscape:connector-curvature="0"
     id="path8101"
     d="M 120.86309,14.968598 H 109.02935 V 1.615897 h 37.11438 V 14.968598 H 134.29821 V 41.83885 h -13.4469 V 14.968598" />
  <path
     inkscape:connector-curvature="0"
     id="path8103"
     d="m 152.04294,1.615897 h 14.0121 l 8.63097,14.129843 8.59566,-14.129843 h 14.03564 V 41.83885 H 183.92928 V 21.915771 l -9.24327,14.282917 h -0.2355 L 165.19547,21.915771 V 41.83885 H 152.04294 V 1.615897" />
  <path
     inkscape:connector-curvature="0"
     id="path8105"
     d="m 204.00544,1.615897 h 13.44689 v 26.929125 h 18.91045 V 41.850625 H 204.01722 V 1.615897" />
  <g
     id="g8153"
     transform="matrix(1.0342988,0,0,1.0342988,-5.1448193,-7.2373408)">
    <path
       d="m 149.99431,185.13166 v -25.54658 h -33.84582 l -2.3338,-26.18412 h 36.17962 V 107.8316 H 85.865993 l 0.603374,6.86479 6.295572,70.44666 h 57.217981"
       id="path8095"
       inkscape:connector-curvature="0"
       style="fill:#ffffff" />
    <path
       d="m 149.99431,225.97888 -0.11385,0.0342 -28.48376,-7.68447 -1.8215,-20.37807 H 93.914763 l 3.574701,40.13 52.390996,14.53788 0.11385,-0.0228 v -26.60534"
       id="path8097"
       inkscape:connector-curvature="0"
       style="fill:#ffffff" />
    <path
       d="M 209.35256,159.58508 H 149.926 v 25.55797 h 31.50063 l -2.95994,33.17414 -28.54069,7.69585 v 26.59395 l 52.43654,-14.52649 0.38707,-4.32607 6.01096,-67.28179 0.62614,-6.87618"
       id="path8107"
       inkscape:connector-curvature="0"
       style="fill:#ffffff" />
    <path
       d="m 213.97462,107.8316 h -64.07139 v 25.56936 h 61.78313 l 0.5123,-5.74912 1.16121,-12.94406 0.61475,-6.86479"
       id="path8109"
       inkscape:connector-curvature="0"
       style="fill:#ffffff" />
  </g>
</svg>
