<?xml version="1.0" encoding="UTF-8" standalone="no"?>
<svg
   xmlns:dc="http://purl.org/dc/elements/1.1/"
   xmlns:cc="http://creativecommons.org/ns#"
   xmlns:rdf="http://www.w3.org/1999/02/22-rdf-syntax-ns#"
   xmlns:svg="http://www.w3.org/2000/svg"
   xmlns="http://www.w3.org/2000/svg"
   xmlns:sodipodi="http://sodipodi.sourceforge.net/DTD/sodipodi-0.dtd"
   xmlns:inkscape="http://www.inkscape.org/namespaces/inkscape"
   width="300"
   height="300"
   id="svg8348"
   version="1.1"
   inkscape:version="0.48.4 r9939"
   sodipodi:docname="js_logo_optimized.svg">
  <metadata
     id="metadata8411">
    <rdf:RDF>
      <cc:Work
         rdf:about="">
        <dc:format>image/svg+xml</dc:format>
        <dc:type
           rdf:resource="http://purl.org/dc/dcmitype/StillImage" />
      </cc:Work>
    </rdf:RDF>
  </metadata>
  <sodipodi:namedview
     pagecolor="#ffffff"
     bordercolor="#666666"
     borderopacity="1"
     objecttolerance="10"
     gridtolerance="10"
     guidetolerance="10"
     inkscape:pageopacity="0"
     inkscape:pageshadow="2"
     inkscape:window-width="1855"
     inkscape:window-height="1056"
     id="namedview8409"
     showgrid="false"
     inkscape:zoom="2.2250293"
     inkscape:cx="226.68055"
     inkscape:cy="158.17813"
     inkscape:window-x="65"
     inkscape:window-y="24"
     inkscape:window-maximized="1"
     inkscape:current-layer="svg8348" />
  <defs
     id="defs8350">
    <clipPath
       id="clipPath8352">
      <path
         d="M2691.68 3012.94H1679.8l-50.82 411.22h1062.7v-411.22"
         id="path8354" />
    </clipPath>
    <clipPath
       id="clipPath8356">
      <path
         d="M3694.32 3012.94H2691.67v411.22h-1062.7H3735.9l-41.58-411.22"
         id="path8358" />
    </clipPath>
    <clipPath
       id="clipPath8360">
      <path
         d="M2691.68 1058.95l-857.9 253.67-55.45 642.24h423.58l27.74-332.67 457.42-115.52.74.2.8-.2 3.08.86v-448.6"
         id="path8362" />
    </clipPath>
    <clipPath
       id="clipPath8364">
      <path
         d="M2691.68 2178.25l-941.07 3-.04.63-32.3 401.36h973.42v-405"
         id="path8366" />
    </clipPath>
    <clipPath
       id="clipPath8368">
      <path
         d="M1749.1 2181.26l-32.33 401.98h1.5l32.3-401.36-1.46-.62"
         id="path8370" />
    </clipPath>
    <clipPath
       id="clipPath8372">
      <path
         d="M2693.23 1058.5l-.34.1-1.22.35v448.6l1.2.33 471.63 132.8 32.36 535.96-503.97 1.6h-1.22v405h-973.4H3658.9L3548 1308l-854.77-249.5m-6.17 448.18l-457.42 115.5-27.73 332.68h-423.57 425.08l27.73-332.67 456.67-115.3-.74-.22"
         id="path8374" />
    </clipPath>
    <clipPath
       id="clipPath8376">
      <path
         d="M2691.68 2584.27v405l56.83 23.67h945.82L2692.9 2584.78l-1.22-.5"
         id="path8378" />
    </clipPath>
    <clipPath
       id="clipPath8380">
      <path
         d="M2689.28 2583.24h-972.5l974.9 406.03v-405l-2.4-1.03"
         id="path8382" />
    </clipPath>
    <clipPath
       id="a">
      <path
         d="M0 141.73h141.73V0H0v141.73z"
         id="path8385" />
    </clipPath>
  </defs>
  <g
     id="g8389"
     transform="matrix(1.2416503,0,0,1.2416503,-40.649195,-38.162997)">
    <path
       inkscape:connector-curvature="0"
       id="path8391"
       d="M 239.42,78 H 67.67 l 16.1,174.6 69.77,19.8 L 223.3,252.6 239.42,78 z" />
  </g>
  <g
     style="fill:#ffffff"
     id="g8393"
     transform="matrix(1.2416503,0,0,1.2416503,-40.649195,-38.162997)">
    <path
       inkscape:connector-curvature="0"
       id="path8395"
       d="m 198.5,113.65 h -86.92 l -6.04,65.38 0.13,-0.4 h 73.83 l -2.4,27.64 -23.56,6.8 -23.9,-6.9 -1.44,-16.73 h -21.7 l 3.1,33.44 43.94,12.48 43.95,-12.48 6.04,-65.63 H 125.2 l 1,-21.9 h 54.38 l 0.8,12.54 h 21.9 l -4.78,-34.25 z" />
  </g>
  <g
     id="g8397"
     transform="matrix(1.2194107,0,0,1.2194107,-37.234417,-32.799447)">
    <path
       inkscape:connector-curvature="0"
       id="path8399"
       d="m 136.52515,48.804458 h -15.54849 v 11.170071 h 26.6982 V 26.779971 h -11.13953 v 22.024487 z" />
  </g>
  <g
     id="g8401"
     transform="matrix(1.2416503,0,0,1.2416503,-40.649195,-38.162997)">
    <g
       id="g8403"
       transform="matrix(2.132,0,0,-2.132,2.438,302.612)"
       clip-path="url(#a)">
      <g
         id="g8405">
        <path
           inkscape:connector-curvature="0"
           id="path8407"
           d="m 85.87,127.48 h -12.5 v -5.35 c 1.67,-1.67 2.55,-2.47 4.97,-4.9 -1.42,0 -4.97,0 -4.97,0 v -4.88 h 12.5 v 4.88 l -5,4.9 h 5 v 5.35 z" />
      </g>
    </g>
  </g>
</svg>
